<?xml version="1.0" encoding="utf-8"?>
<!-- Generator: Adobe Illustrator 21.0.2, SVG Export Plug-In . SVG Version: 6.00 Build 0)  -->
<svg version="1.1" xmlns="http://www.w3.org/2000/svg" xmlns:xlink="http://www.w3.org/1999/xlink" x="0px" y="0px"
	 viewBox="0 0 612 792" style="enable-background:new 0 0 612 792;" xml:space="preserve">
<style type="text/css">
	.st0{fill:#223040;stroke:#FFFFFF;stroke-miterlimit:10;}
	.st1{fill:#223040;stroke:#000000;stroke-miterlimit:10;}
</style>
<g id="Layer_1">
</g>
<g id="b">
	<path class="st0" d="M368.1,512.4l0.2-260.2h113.3c0,0,60.7,4.8,64,52.2c0,0,18,42-30,66.7c0,0,54.7,16,42.7,70
		c0,0,8,56.7-63.3,71.3h-36.7l-1.3-70c0,0,38.7,6,33.3-12c0,0,4.7-14-33.3-10.7l0.3-71.8c0,0,19.2,5.7,20.8-12.5
		c0,0-0.2-8.7-9.8-11.2l-20.3,0.2l0.2,188H368.1z"/>
</g>
<g id="m">
	<path class="st1" d="M51,512.4V307.1c0,0,13.1-63.7,68.7-60.8c0.5,0,1.1,0.1,1.7,0.1c0,0,44.7-9.7,69,34c0,0,27-46.2,76.3-34.9
		c0,0,47,2.6,57,53.2l2.3,213.7h-79.3l0.3-182.3c0,0-8.7-13.7-16.3,0L230,512.4h-80l0.3-178.3c0,0-7.3-25-18.3,0.7l-0.3,177.7H51z"
		/>
</g>
</svg>
