<?xml version="1.0" encoding="utf-8"?>
<!-- Generator: Adobe Illustrator 21.0.2, SVG Export Plug-In . SVG Version: 6.00 Build 0)  -->
<svg version="1.1" xmlns="http://www.w3.org/2000/svg" xmlns:xlink="http://www.w3.org/1999/xlink" x="0px" y="0px"
	 viewBox="0 0 612 792" style="enable-background:new 0 0 612 792;" xml:space="preserve">
<style type="text/css">
	.st0{fill:#223040;stroke:#FFFFFF;stroke-width:5;stroke-miterlimit:10;}
</style>
<g id="Layer_1">
</g>
<g id="b">
	<path class="st0" d="M361,506l2.7-247.2l107.7,1.1c0,0,57.6,5.2,60.3,50.2c0,0,16.7,40.1-29.2,63.1c0,0,51.8,15.7,39.9,66.9
		c0,0,7,53.9-60.9,67.2l-34.8-0.4l-0.6-66.5c0,0,36.7,6.1,31.8-11.1c0,0,4.6-13.3-31.6-10.5l1-68.3c0,0,18.2,5.6,19.9-11.7
		c0,0-0.1-8.2-9.2-10.7l-19.3,0L437,506.8L361,506z"/>
</g>
<g id="m">
	<path class="st0" d="M69.5,507.3l0-205.3c0,0,13.1-63.7,68.7-60.8c0.5,0,1.1,0.1,1.7,0.1c0,0,44.7-9.7,69,34c0,0,27-46.2,76.3-34.9
		c0,0,47,2.6,57,53.2l2.3,213.7l-79.3,0l0.3-182.3c0,0-8.7-13.7-16.3,0l-0.7,182.3l-80,0l0.3-178.3c0,0-7.3-25-18.3,0.7l-0.3,177.7
		L69.5,507.3z"/>
</g>
</svg>
